<svg id="Layer_1" data-name="Layer 1" xmlns="http://www.w3.org/2000/svg" viewBox="0 0 779.3 82.4"><defs><style>.cls-1,.cls-2{fill:#fff;}.cls-1{stroke:#fff;}</style></defs><title>kolinlogosvg</title><path class="cls-1" d="M339.19,65.24H329.6l-9.23-24-5.46,3.66-4.29,20.32h-8.68L313.26,11.7h8.68l-5.53,25.85,5.16-6.08,18-19.78H350L327.43,36.2Z"/><path class="cls-1" d="M382.77,39.9a33,33,0,0,1-2.67,13.46,21.56,21.56,0,0,1-7.34,9.3A18.38,18.38,0,0,1,362,65.9q-7,0-11.17-4.19T346.7,50.3a33.45,33.45,0,0,1,2.62-13.37,22,22,0,0,1,7.34-9.47,18.25,18.25,0,0,1,10.91-3.39q7.14,0,11.17,4.25T382.77,39.9Zm-8.68-.37a9.49,9.49,0,0,0-1.79-6.13,6.22,6.22,0,0,0-5.13-2.22,8.52,8.52,0,0,0-6.1,2.62,17.26,17.26,0,0,0-4.17,7.1,30.31,30.31,0,0,0-1.48,9.58,9.45,9.45,0,0,0,1.81,6.23,6.61,6.61,0,0,0,5.37,2.16,8.42,8.42,0,0,0,5.93-2.49,16.37,16.37,0,0,0,4.1-7A31.65,31.65,0,0,0,374.09,39.53Z"/><path class="cls-1" d="M396.54,65.24H388l12.09-57h8.61Z"/><path class="cls-1" d="M408.07,61.8a6.76,6.76,0,0,1,1.72-4.85,6.3,6.3,0,0,1,4.8-1.81,4.59,4.59,0,0,1,3.28,1.15,4.43,4.43,0,0,1,1.23,3.39,6.73,6.73,0,0,1-1.74,4.74,5.91,5.91,0,0,1-4.56,1.89,4.53,4.53,0,0,1-3.57-1.3A4.65,4.65,0,0,1,408.07,61.8Zm6.3-31.27a6.76,6.76,0,0,1,1.72-4.85,6.3,6.3,0,0,1,4.8-1.81A4.59,4.59,0,0,1,424.17,25a4.43,4.43,0,0,1,1.23,3.39,6.63,6.63,0,0,1-1.78,4.76A6.06,6.06,0,0,1,419,35a4.42,4.42,0,0,1-3.53-1.3A4.74,4.74,0,0,1,414.37,30.52Z"/><path class="cls-1" d="M437.41,65.24h-8.64l8.64-40.5H446Zm1.72-50.46a5.68,5.68,0,0,1,1.43-4,5.22,5.22,0,0,1,4-1.54,4.88,4.88,0,0,1,3.15,1,3.56,3.56,0,0,1,1.21,2.95,5.62,5.62,0,0,1-1.46,4.1,5.13,5.13,0,0,1-3.84,1.5,5.25,5.25,0,0,1-3.22-1A3.49,3.49,0,0,1,439.13,14.78Z"/><path class="cls-1" d="M473.37,65.24l5.2-24.61a27.67,27.67,0,0,0,.66-4.8q0-4.8-4.72-4.8a8.21,8.21,0,0,0-5.2,2.09,18.87,18.87,0,0,0-4.61,6,34,34,0,0,0-3.08,8.92L458,65.24h-8.64L458,24.74h6.74L464,32.25h.33A22,22,0,0,1,470.59,26a13.22,13.22,0,0,1,7-2q4.91,0,7.6,2.78t2.69,7.91a34.59,34.59,0,0,1-.84,6.63l-5,23.91Z"/><rect class="cls-2" x="1.98" y="40.53" width="774.92" height="8"/></svg>