<svg id="Layer_1" data-name="Layer 1" xmlns="http://www.w3.org/2000/svg" viewBox="0 0 1224 792"><defs><style>.cls-1{font-size:354.31px;fill:#fff;font-family:Europa-Bold;font-weight:700;}.cls-2{fill:none;stroke:#fff;stroke-miterlimit:10;stroke-width:3px;}</style></defs><title>BBBS logo1</title><text class="cls-1" transform="translate(577.26 536.36)">B</text><path class="cls-2" d="M838.57,438.74a29,29,0,1,0,0-58.09c-.91,0-1.81.05-2.7.13a155.32,155.32,0,0,0-6.25-23.43c.8-.38,1.6-.77,2.38-1.22a29.05,29.05,0,0,0-29-50.32c-.79.46-1.55,1-2.28,1.48a158.6,158.6,0,0,0-17.15-17.14c.52-.73,1-1.49,1.48-2.29a29,29,0,1,0-50.31-29c-.45.78-.85,1.57-1.22,2.38A156.35,156.35,0,0,0,710,254.94a26.62,26.62,0,0,0,.14-2.69,29.05,29.05,0,0,0-58.1,0c0,.91.06,1.8.14,2.69a157,157,0,0,0-23.44,6.26c-.37-.81-.77-1.6-1.22-2.38a29,29,0,1,0-50.31,29c.46.8,1,1.56,1.48,2.29a157.61,157.61,0,0,0-17.14,17.14c-.74-.52-1.49-1-2.29-1.48a29.05,29.05,0,0,0-29,50.32c.78.45,1.58.84,2.38,1.22a156.52,156.52,0,0,0-6.25,23.43c-.89-.08-1.79-.13-2.7-.13a29,29,0,1,0,0,58.09c.91,0,1.81-.05,2.7-.13A156.52,156.52,0,0,0,532.62,462c-.8.37-1.6.77-2.38,1.22a29.05,29.05,0,0,0,29,50.32c.8-.46,1.55-1,2.29-1.48a157.61,157.61,0,0,0,17.14,17.14c-.52.73-1,1.49-1.48,2.29a29,29,0,1,0,50.31,29c.45-.78.85-1.57,1.22-2.38a157,157,0,0,0,23.44,6.26c-.08.89-.14,1.78-.14,2.69a29,29,0,1,0,58.1,0,26.62,26.62,0,0,0-.14-2.69,156.35,156.35,0,0,0,23.44-6.26c.37.81.77,1.6,1.22,2.38a29,29,0,1,0,50.31-29c-.46-.8-1-1.56-1.48-2.29a158.6,158.6,0,0,0,17.15-17.14c.73.52,1.49,1,2.28,1.48a29.05,29.05,0,0,0,29-50.32c-.78-.45-1.58-.85-2.38-1.22a155.32,155.32,0,0,0,6.25-23.43C836.76,438.69,837.66,438.74,838.57,438.74Z"/><path class="cls-2" d="M813.14,500.27a29,29,0,1,0,23.63-53.07c-.83-.37-1.67-.69-2.51-1a157.11,157.11,0,0,0,3.81-24c.89,0,1.78,0,2.67-.14a29,29,0,1,0-6.07-57.78,26.43,26.43,0,0,0-2.69.42,157.66,157.66,0,0,0-8.69-22.63c.78-.46,1.54-.95,2.28-1.49a29,29,0,1,0-34.14-47c-.73.53-1.42,1.09-2.09,1.68a155.52,155.52,0,0,0-18.86-15.25c.43-.78.85-1.58,1.22-2.41A29.05,29.05,0,0,0,718.62,254c-.37.83-.68,1.68-1,2.52a155.78,155.78,0,0,0-23.95-3.82c0-.88-.05-1.77-.15-2.67a29,29,0,0,0-57.78,6.08c.1.91.25,1.8.42,2.68a159.31,159.31,0,0,0-22.63,8.69c-.46-.77-.94-1.54-1.48-2.28a29.05,29.05,0,0,0-47,34.15c.53.73,1.1,1.42,1.68,2.08a156.33,156.33,0,0,0-15.24,18.87c-.78-.44-1.58-.85-2.41-1.22a29,29,0,0,0-23.63,53.07,26.67,26.67,0,0,0,2.52,1,155.91,155.91,0,0,0-3.82,24c-.89,0-1.77.05-2.67.14A29,29,0,0,0,527.57,455a26.43,26.43,0,0,0,2.69-.42A157.66,157.66,0,0,0,539,477.25c-.78.46-1.54.95-2.28,1.49a29,29,0,1,0,34.15,47c.73-.53,1.41-1.09,2.08-1.68a155.52,155.52,0,0,0,18.86,15.25c-.43.78-.85,1.57-1.22,2.41a29.05,29.05,0,0,0,53.08,23.63c.37-.83.68-1.68,1-2.52a156,156,0,0,0,23.95,3.82c0,.88.06,1.77.15,2.67a29,29,0,1,0,57.78-6.08c-.1-.91-.25-1.8-.42-2.68a159.31,159.31,0,0,0,22.63-8.69c.46.77,1,1.54,1.49,2.28a29,29,0,0,0,47-34.15c-.53-.73-1.1-1.42-1.68-2.08a157.37,157.37,0,0,0,15.25-18.87C811.51,499.49,812.31,499.9,813.14,500.27Z"/><path class="cls-2" d="M764.89,546.14a29,29,0,1,0,43.17-38.88c-.61-.67-1.25-1.3-1.9-1.91A155.76,155.76,0,0,0,819.39,485c.81.35,1.64.68,2.5,1a29.05,29.05,0,0,0,18-55.26c-.87-.28-1.75-.51-2.63-.71a158,158,0,0,0,1.27-24.21c.9-.1,1.79-.24,2.69-.43a29,29,0,0,0-12.08-56.82c-.88.18-1.74.42-2.58.68a157.05,157.05,0,0,0-11-21.6c.72-.53,1.42-1.09,2.1-1.7a29.05,29.05,0,0,0-38.88-43.18,26.47,26.47,0,0,0-1.91,1.91,155.4,155.4,0,0,0-20.33-13.23c.35-.82.67-1.64.95-2.5a29,29,0,0,0-55.25-18c-.28.87-.51,1.75-.71,2.62a159.32,159.32,0,0,0-24.21-1.27c-.1-.89-.24-1.79-.43-2.68A29,29,0,1,0,620,261.73c.19.88.43,1.74.69,2.58a155.86,155.86,0,0,0-21.6,11c-.54-.71-1.1-1.41-1.71-2.09a29,29,0,1,0-43.17,38.88c.61.67,1.25,1.3,1.9,1.91a156.8,156.8,0,0,0-13.23,20.33c-.81-.35-1.64-.68-2.49-1a29.05,29.05,0,1,0-18,55.26c.87.28,1.75.51,2.63.71a157.91,157.91,0,0,0-1.27,24.21c-.89.1-1.79.24-2.69.43a29,29,0,1,0,12.08,56.82c.88-.18,1.74-.42,2.59-.68a157,157,0,0,0,11,21.6c-.71.53-1.42,1.09-2.09,1.7a29,29,0,0,0,38.87,43.18,26.47,26.47,0,0,0,1.91-1.91A156.07,156.07,0,0,0,605.79,548c-.35.82-.67,1.64-.95,2.5a29,29,0,1,0,55.25,17.95,25.46,25.46,0,0,0,.71-2.62A159.32,159.32,0,0,0,685,567.06c.11.89.24,1.78.43,2.68a29,29,0,1,0,56.83-12.08q-.28-1.32-.69-2.58a156.53,156.53,0,0,0,21.61-11C763.72,544.76,764.28,545.46,764.89,546.14Z"/><path class="cls-2" d="M702.15,568.41a29,29,0,0,0,55.25-17.95c-.28-.86-.61-1.7-1-2.52a157,157,0,0,0,20.36-13.19c.6.65,1.22,1.28,1.89,1.89a29.05,29.05,0,1,0,38.88-43.18c-.69-.61-1.39-1.18-2.12-1.72a156.68,156.68,0,0,0,11-21.6c.86.27,1.73.51,2.63.7A29,29,0,1,0,841.17,414c-.88-.19-1.76-.32-2.64-.43a155.52,155.52,0,0,0-1.3-24.22c.88-.2,1.74-.42,2.61-.7a29.05,29.05,0,0,0-18-55.26,26.26,26.26,0,0,0-2.52,1A157,157,0,0,0,806.18,314c.64-.6,1.28-1.23,1.88-1.89a29,29,0,1,0-43.17-38.88c-.62.68-1.18,1.39-1.72,2.11a158.9,158.9,0,0,0-21.6-11c.27-.86.51-1.74.7-2.63a29,29,0,1,0-56.83-12.08q-.27,1.32-.42,2.64a156.67,156.67,0,0,0-24.22,1.29c-.2-.87-.43-1.74-.71-2.6a29,29,0,1,0-55.25,18c.28.86.61,1.7,1,2.52a156.86,156.86,0,0,0-20.35,13.19c-.61-.65-1.23-1.28-1.9-1.89a29,29,0,0,0-38.87,43.18c.68.61,1.39,1.18,2.11,1.72a156.68,156.68,0,0,0-11,21.6c-.86-.27-1.73-.51-2.63-.7a29,29,0,0,0-12.08,56.82c.89.19,1.77.32,2.64.43A155.52,155.52,0,0,0,525,430c-.87.2-1.74.42-2.61.7a29.05,29.05,0,1,0,18,55.26c.86-.29,1.7-.61,2.52-1a154.9,154.9,0,0,0,13.19,20.36c-.65.6-1.29,1.22-1.89,1.89a29,29,0,1,0,43.17,38.88c.62-.68,1.18-1.39,1.72-2.11a158.9,158.9,0,0,0,21.6,11c-.27.86-.51,1.74-.7,2.63a29,29,0,1,0,56.83,12.08c.19-.88.32-1.76.42-2.64a156.87,156.87,0,0,0,24.23-1.29C701.64,566.68,701.87,567.55,702.15,568.41Z"/><path class="cls-2" d="M635.77,563.24a29,29,0,0,0,57.78,6.08c.1-.91.14-1.81.15-2.7a155.73,155.73,0,0,0,24-3.77c.29.84.6,1.67,1,2.5a29.05,29.05,0,0,0,53.08-23.63c-.37-.84-.79-1.65-1.23-2.43A158.64,158.64,0,0,0,789.31,524a25.53,25.53,0,0,0,2.12,1.71,29,29,0,1,0,34.14-47c-.73-.53-1.48-1-2.23-1.46A155.74,155.74,0,0,0,832,454.63c.88.17,1.77.32,2.67.41a29,29,0,1,0,6.07-57.78c-.9-.09-1.8-.13-2.69-.14a157.28,157.28,0,0,0-3.77-24,26.05,26.05,0,0,0,2.49-1,29,29,0,0,0-23.63-53.07c-.84.37-1.64.79-2.42,1.23a158.64,158.64,0,0,0-15.26-18.84c.59-.68,1.17-1.38,1.71-2.12a29,29,0,0,0-47-34.15c-.53.73-1,1.48-1.46,2.24a157.06,157.06,0,0,0-22.66-8.67c.18-.87.32-1.76.42-2.66a29,29,0,0,0-57.78-6.08c-.1.91-.14,1.8-.15,2.7a155.92,155.92,0,0,0-24,3.77c-.28-.84-.6-1.67-1-2.5a29.05,29.05,0,0,0-53.08,23.63q.57,1.26,1.23,2.43a158.54,158.54,0,0,0-18.83,15.26c-.68-.6-1.38-1.17-2.12-1.71a29,29,0,1,0-34.15,47c.73.53,1.48,1,2.24,1.46a154.64,154.64,0,0,0-8.67,22.65c-.88-.17-1.76-.32-2.67-.41a29,29,0,0,0-6.07,57.78c.9.09,1.8.13,2.69.14a157.28,157.28,0,0,0,3.77,24c-.83.28-1.67.59-2.49,1a29,29,0,0,0,23.63,53.07c.84-.37,1.64-.79,2.43-1.23a157.57,157.57,0,0,0,15.25,18.84c-.59.68-1.17,1.38-1.71,2.12a29.05,29.05,0,0,0,47,34.15c.53-.73,1-1.48,1.46-2.24a156.94,156.94,0,0,0,22.65,8.67C636,561.45,635.87,562.34,635.77,563.24Z"/><path class="cls-2" d="M577.24,531.53a29,29,0,1,0,50.31,29,25.87,25.87,0,0,0,1.23-2.4,155.85,155.85,0,0,0,23.43,6.3c-.08.88-.14,1.77-.14,2.67a29,29,0,1,0,58.1,0,27,27,0,0,0-.14-2.71,158,158,0,0,0,23.42-6.28,26.3,26.3,0,0,0,1.24,2.42,29,29,0,1,0,50.31-29c-.45-.79-.94-1.53-1.45-2.25a157,157,0,0,0,17.14-17.17c.72.52,1.47,1,2.26,1.47a29.05,29.05,0,0,0,29-50.32c-.79-.45-1.59-.85-2.4-1.23a155.73,155.73,0,0,0,6.3-23.42c.88.08,1.77.13,2.67.13a29,29,0,1,0,0-58.09c-.92,0-1.82.05-2.72.13a159.11,159.11,0,0,0-6.27-23.41c.81-.38,1.63-.78,2.42-1.24a29.05,29.05,0,0,0-29-50.32c-.78.45-1.52.95-2.24,1.46a156.13,156.13,0,0,0-17.17-17.14c.51-.73,1-1.48,1.46-2.27a29,29,0,1,0-50.31-29,25.87,25.87,0,0,0-1.23,2.4,155.53,155.53,0,0,0-23.43-6.3,26.22,26.22,0,0,0,.14-2.67,29.05,29.05,0,0,0-58.1,0c0,.91.06,1.82.14,2.71a158.36,158.36,0,0,0-23.42,6.28,26.3,26.3,0,0,0-1.24-2.42,29,29,0,1,0-50.31,29c.45.79.94,1.53,1.45,2.25a156,156,0,0,0-17.13,17.17c-.73-.52-1.48-1-2.27-1.47a29.05,29.05,0,0,0-29,50.32c.79.45,1.59.85,2.4,1.23a158.14,158.14,0,0,0-6.3,23.42c-.88-.08-1.77-.13-2.67-.13a29,29,0,1,0,0,58.09c.92,0,1.82-.05,2.72-.13A159.11,159.11,0,0,0,532.66,462c-.81.38-1.62.78-2.42,1.24a29.05,29.05,0,0,0,29,50.32c.78-.45,1.52-1,2.25-1.46a155.26,155.26,0,0,0,17.17,17.14C578.19,530,577.7,530.74,577.24,531.53Z"/><path class="cls-2" d="M536.67,478.74a29,29,0,1,0,34.15,47c.73-.53,1.43-1.1,2.1-1.69a155.7,155.7,0,0,0,18.83,15.28c-.43.77-.84,1.56-1.21,2.39a29.05,29.05,0,0,0,53.08,23.63c.37-.84.69-1.69,1-2.54a158.84,158.84,0,0,0,23.94,3.79c0,.9.05,1.8.15,2.72a29,29,0,1,0,57.78-6.08c-.1-.89-.24-1.77-.41-2.64a156.32,156.32,0,0,0,22.63-8.71c.46.76.94,1.52,1.48,2.26a29,29,0,0,0,47-34.15c-.54-.74-1.11-1.43-1.7-2.1a155.88,155.88,0,0,0,15.29-18.84c.77.43,1.56.85,2.38,1.21a29,29,0,1,0,23.63-53.07,27.12,27.12,0,0,0-2.54-1,157.73,157.73,0,0,0,3.8-24c.9,0,1.8,0,2.71-.14a29,29,0,1,0-6.07-57.78c-.9.09-1.77.24-2.64.41a156.49,156.49,0,0,0-8.72-22.64c.77-.45,1.53-.94,2.26-1.47a29,29,0,1,0-34.14-47c-.74.53-1.43,1.1-2.11,1.69a155.7,155.7,0,0,0-18.83-15.28c.43-.77.84-1.56,1.21-2.39A29.05,29.05,0,0,0,718.62,254c-.37.84-.69,1.69-1,2.54a158.64,158.64,0,0,0-23.94-3.79c0-.9-.05-1.8-.15-2.72a29,29,0,0,0-57.78,6.08c.1.89.25,1.77.42,2.64a156.44,156.44,0,0,0-22.64,8.71c-.46-.76-.94-1.52-1.47-2.26a29.05,29.05,0,0,0-47,34.15c.54.74,1.11,1.43,1.7,2.1a156.85,156.85,0,0,0-15.29,18.84c-.77-.43-1.56-.85-2.38-1.21a29,29,0,0,0-23.63,53.07c.84.38,1.69.69,2.54,1a157.71,157.71,0,0,0-3.79,23.95c-.9,0-1.81.05-2.72.14A29,29,0,0,0,527.57,455c.9-.09,1.78-.24,2.64-.41a156.49,156.49,0,0,0,8.72,22.64C538.16,477.72,537.4,478.21,536.67,478.74Z"/><path class="cls-2" d="M521.07,414a29,29,0,1,0,12.08,56.82q1.33-.29,2.61-.69a156.24,156.24,0,0,0,11,21.63q-1.07.78-2.07,1.68a29,29,0,0,0,38.87,43.18c.68-.62,1.32-1.26,1.93-1.92a159.62,159.62,0,0,0,20.33,13.2,26.64,26.64,0,0,0-1,2.54,29,29,0,1,0,55.25,17.95c.28-.85.5-1.71.7-2.58A155.94,155.94,0,0,0,685,567.08c.1.88.23,1.77.42,2.66a29,29,0,1,0,56.83-12.08c-.19-.89-.43-1.75-.69-2.6a157.23,157.23,0,0,0,21.62-11c.53.7,1.08,1.4,1.69,2.07a29,29,0,1,0,43.17-38.88c-.61-.68-1.26-1.31-1.92-1.92A157.48,157.48,0,0,0,819.34,485c.83.35,1.67.68,2.55,1a29.05,29.05,0,0,0,18-55.26c-.86-.28-1.72-.5-2.58-.69a154.78,154.78,0,0,0,1.24-24.23c.89-.1,1.78-.24,2.67-.43a29,29,0,0,0-12.08-56.82,25,25,0,0,0-2.61.69,156.24,156.24,0,0,0-11-21.63c.71-.52,1.41-1.08,2.08-1.68a29.05,29.05,0,0,0-38.88-43.18c-.68.62-1.32,1.26-1.93,1.92a158.92,158.92,0,0,0-20.33-13.2,26.64,26.64,0,0,0,1-2.54,29,29,0,0,0-55.25-18c-.28.85-.5,1.71-.7,2.58a155.81,155.81,0,0,0-24.22-1.25c-.11-.88-.24-1.77-.43-2.66A29,29,0,1,0,620,261.73c.19.89.43,1.75.7,2.6a157.35,157.35,0,0,0-21.63,11c-.53-.7-1.08-1.4-1.69-2.07a29,29,0,1,0-43.17,38.88c.61.68,1.26,1.31,1.92,1.92a158.54,158.54,0,0,0-13.2,20.33c-.83-.35-1.67-.68-2.54-1a29.05,29.05,0,1,0-18,55.26c.86.28,1.72.5,2.58.69a157.25,157.25,0,0,0-1.24,24.23C522.85,413.69,522,413.83,521.07,414Z"/><path class="cls-2" d="M533.15,348.55a29,29,0,0,0-12.08,56.82c.89.19,1.78.33,2.67.43A157.25,157.25,0,0,0,525,430c-.86.19-1.72.41-2.58.69a29.05,29.05,0,1,0,18,55.26c.87-.29,1.71-.62,2.54-1a158.54,158.54,0,0,0,13.2,20.33c-.66.61-1.31,1.24-1.92,1.92a29,29,0,1,0,43.17,38.88c.61-.67,1.16-1.37,1.69-2.07a157.35,157.35,0,0,0,21.63,11c-.27.85-.51,1.71-.7,2.6a29,29,0,1,0,56.83,12.08c.19-.89.32-1.78.43-2.66a155.81,155.81,0,0,0,24.22-1.25c.2.87.42,1.73.7,2.58a29,29,0,0,0,55.25-17.95,26.64,26.64,0,0,0-1-2.54,158.92,158.92,0,0,0,20.33-13.2c.61.66,1.25,1.3,1.93,1.92a29.05,29.05,0,1,0,38.88-43.18c-.67-.6-1.37-1.16-2.08-1.68a156.24,156.24,0,0,0,11-21.63q1.28.41,2.61.69A29,29,0,1,0,841.17,414c-.89-.19-1.78-.33-2.67-.43a154.78,154.78,0,0,0-1.24-24.23c.86-.19,1.72-.41,2.58-.69a29.05,29.05,0,0,0-18-55.26c-.88.29-1.72.62-2.55,1a157.48,157.48,0,0,0-13.2-20.33c.66-.61,1.31-1.24,1.92-1.92a29,29,0,1,0-43.17-38.88c-.61.67-1.16,1.37-1.69,2.07a157.23,157.23,0,0,0-21.62-11c.26-.85.5-1.71.69-2.6a29,29,0,1,0-56.83-12.08c-.19.89-.32,1.78-.42,2.66a155.94,155.94,0,0,0-24.23,1.25c-.2-.87-.42-1.73-.7-2.58a29,29,0,1,0-55.25,18,26.64,26.64,0,0,0,1,2.54,159.62,159.62,0,0,0-20.33,13.2c-.61-.66-1.25-1.3-1.93-1.92a29,29,0,0,0-38.87,43.18q1,.9,2.07,1.68a156.24,156.24,0,0,0-11,21.63A25,25,0,0,0,533.15,348.55Z"/><path class="cls-2" d="M570.82,293.65a29,29,0,1,0-34.15,47c.73.53,1.49,1,2.26,1.47a156.49,156.49,0,0,0-8.72,22.64c-.86-.17-1.74-.32-2.64-.41a29,29,0,0,0-6.07,57.78c.91.09,1.82.13,2.72.14a157.71,157.71,0,0,0,3.79,24c-.85.29-1.7.6-2.54,1a29,29,0,0,0,23.63,53.07c.82-.36,1.61-.78,2.38-1.21a156.85,156.85,0,0,0,15.29,18.84c-.59.67-1.16,1.36-1.7,2.1a29.05,29.05,0,0,0,47,34.15c.53-.74,1-1.5,1.47-2.26a156.44,156.44,0,0,0,22.64,8.71c-.17.87-.32,1.75-.42,2.64a29,29,0,0,0,57.78,6.08c.1-.92.14-1.82.15-2.72a158.64,158.64,0,0,0,23.94-3.79c.29.85.61,1.7,1,2.54a29.05,29.05,0,0,0,53.08-23.63c-.37-.83-.78-1.62-1.21-2.39a155.7,155.7,0,0,0,18.83-15.28c.68.59,1.37,1.16,2.11,1.69a29,29,0,1,0,34.14-47c-.73-.53-1.49-1-2.26-1.47A156.49,156.49,0,0,0,832,454.63c.87.17,1.74.32,2.64.41a29,29,0,1,0,6.07-57.78c-.91-.09-1.81-.13-2.71-.14a157.73,157.73,0,0,0-3.8-23.95,27.12,27.12,0,0,0,2.54-1,29,29,0,0,0-23.63-53.07c-.82.36-1.61.78-2.38,1.21a155.88,155.88,0,0,0-15.29-18.84c.59-.67,1.16-1.36,1.7-2.1a29,29,0,0,0-47-34.15c-.54.74-1,1.5-1.48,2.26a155.17,155.17,0,0,0-22.63-8.71c.17-.87.31-1.75.41-2.64a29,29,0,0,0-57.78-6.08c-.1.91-.14,1.82-.15,2.72a158.64,158.64,0,0,0-23.94,3.79c-.29-.85-.61-1.7-1-2.54a29.05,29.05,0,0,0-53.08,23.63c.37.83.78,1.62,1.21,2.39a155.7,155.7,0,0,0-18.83,15.28C572.25,294.75,571.55,294.18,570.82,293.65Z"/><path class="cls-2" d="M627.55,258.82a29,29,0,1,0-50.31,29c.46.79,1,1.54,1.47,2.27a155.26,155.26,0,0,0-17.17,17.14c-.73-.51-1.47-1-2.25-1.46a29.05,29.05,0,0,0-29,50.32c.8.46,1.61.86,2.42,1.24a159.11,159.11,0,0,0-6.27,23.41c-.9-.08-1.8-.13-2.72-.13a29,29,0,1,0,0,58.09c.9,0,1.79-.05,2.67-.13a158.14,158.14,0,0,0,6.3,23.42c-.81.38-1.61.78-2.4,1.23a29.05,29.05,0,0,0,29,50.32c.79-.46,1.54-1,2.27-1.47a156,156,0,0,0,17.13,17.17c-.51.72-1,1.46-1.45,2.25a29,29,0,1,0,50.31,29,26.3,26.3,0,0,0,1.24-2.42,158.36,158.36,0,0,0,23.42,6.28c-.08.89-.14,1.8-.14,2.71a29,29,0,1,0,58.1,0,26.22,26.22,0,0,0-.14-2.67,155.53,155.53,0,0,0,23.43-6.3,25.87,25.87,0,0,0,1.23,2.4,29,29,0,1,0,50.31-29c-.45-.79-1-1.54-1.46-2.27a156.13,156.13,0,0,0,17.17-17.14c.72.51,1.46,1,2.24,1.46a29.05,29.05,0,0,0,29-50.32c-.79-.46-1.61-.86-2.42-1.24a159.11,159.11,0,0,0,6.27-23.41c.9.08,1.8.13,2.72.13a29,29,0,1,0,0-58.09c-.9,0-1.79.05-2.67.13a155.73,155.73,0,0,0-6.3-23.42c.81-.38,1.61-.78,2.4-1.23a29.05,29.05,0,0,0-29-50.32c-.79.46-1.54.95-2.26,1.47a157,157,0,0,0-17.14-17.17c.51-.72,1-1.46,1.45-2.25a29,29,0,1,0-50.31-29,26.3,26.3,0,0,0-1.24,2.42A158,158,0,0,0,710,255a27,27,0,0,0,.14-2.71,29.05,29.05,0,0,0-58.1,0c0,.9.06,1.79.14,2.67a155.85,155.85,0,0,0-23.43,6.3A25.87,25.87,0,0,0,627.55,258.82Z"/><path class="cls-2" d="M693.55,250.07a29,29,0,0,0-57.78,6.08c.1.9.25,1.79.42,2.66a156.94,156.94,0,0,0-22.65,8.67c-.46-.76-.93-1.51-1.46-2.24a29.05,29.05,0,0,0-47,34.15c.54.74,1.12,1.44,1.71,2.12a157.57,157.57,0,0,0-15.25,18.84c-.79-.44-1.59-.86-2.43-1.23a29,29,0,0,0-23.63,53.07c.82.37,1.66.68,2.49,1a157.28,157.28,0,0,0-3.77,24c-.89,0-1.79.05-2.69.14A29,29,0,0,0,527.57,455c.91-.09,1.79-.24,2.67-.41a154.64,154.64,0,0,0,8.67,22.65c-.76.45-1.51.93-2.24,1.46a29,29,0,1,0,34.15,47c.74-.54,1.44-1.11,2.12-1.71a158.54,158.54,0,0,0,18.83,15.26q-.66,1.17-1.23,2.43a29.05,29.05,0,0,0,53.08,23.63c.36-.83.68-1.66,1-2.5a155.92,155.92,0,0,0,24,3.77c0,.89.05,1.79.15,2.7a29,29,0,1,0,57.78-6.08c-.1-.9-.24-1.79-.42-2.66a157.51,157.51,0,0,0,22.66-8.67c.45.76.93,1.51,1.46,2.24a29,29,0,0,0,47-34.15c-.54-.74-1.12-1.44-1.71-2.12A158.64,158.64,0,0,0,810.72,499c.78.44,1.58.86,2.42,1.23a29,29,0,1,0,23.63-53.07,26.05,26.05,0,0,0-2.49-1,157.28,157.28,0,0,0,3.77-24c.89,0,1.79,0,2.69-.14a29,29,0,1,0-6.07-57.78c-.9.09-1.79.24-2.67.41a154.64,154.64,0,0,0-8.67-22.65c.76-.45,1.51-.93,2.24-1.46a29,29,0,1,0-34.14-47,25.53,25.53,0,0,0-2.12,1.71,158.64,158.64,0,0,0-18.84-15.26c.44-.78.86-1.59,1.23-2.43A29.05,29.05,0,0,0,718.62,254c-.36.83-.67,1.66-1,2.5a155.92,155.92,0,0,0-24-3.77C693.69,251.87,693.65,251,693.55,250.07Z"/><path class="cls-2" d="M757.4,268.93a29,29,0,0,0-55.25-18c-.28.86-.51,1.73-.7,2.6a156.87,156.87,0,0,0-24.23-1.29c-.1-.88-.23-1.76-.42-2.64A29,29,0,1,0,620,261.73c.19.89.43,1.77.7,2.63a158.9,158.9,0,0,0-21.6,11c-.54-.72-1.1-1.43-1.72-2.11a29,29,0,1,0-43.17,38.88c.6.66,1.24,1.29,1.89,1.89a154.9,154.9,0,0,0-13.19,20.36c-.82-.36-1.66-.69-2.52-1a29.05,29.05,0,1,0-18,55.26c.87.28,1.74.5,2.61.7a155.52,155.52,0,0,0-1.3,24.22c-.87.11-1.75.24-2.64.43a29,29,0,1,0,12.08,56.82c.9-.19,1.77-.43,2.63-.7a156.68,156.68,0,0,0,11,21.6c-.72.54-1.43,1.11-2.11,1.72a29,29,0,0,0,38.87,43.18c.67-.61,1.29-1.24,1.9-1.89a156.18,156.18,0,0,0,20.35,13.19c-.35.82-.68,1.66-1,2.52a29,29,0,1,0,55.25,17.95c.28-.86.51-1.73.71-2.6A156.67,156.67,0,0,0,685,567.1q.15,1.32.42,2.64a29,29,0,1,0,56.83-12.08c-.19-.89-.43-1.77-.7-2.63a158.9,158.9,0,0,0,21.6-11c.54.72,1.1,1.43,1.72,2.11a29,29,0,1,0,43.17-38.88c-.6-.67-1.24-1.29-1.88-1.89A157,157,0,0,0,819.37,485c.82.36,1.65.68,2.52,1a29.05,29.05,0,0,0,18-55.26c-.87-.28-1.73-.5-2.61-.7a155.52,155.52,0,0,0,1.3-24.22c.88-.11,1.76-.24,2.64-.43a29,29,0,0,0-12.08-56.82c-.9.19-1.77.43-2.63.7a156.68,156.68,0,0,0-11-21.6c.73-.54,1.43-1.11,2.12-1.72a29.05,29.05,0,0,0-38.88-43.18c-.67.61-1.29,1.24-1.89,1.89a157,157,0,0,0-20.36-13.19C756.79,270.63,757.12,269.79,757.4,268.93Z"/><path class="cls-2" d="M808.06,312.13a29,29,0,1,0-43.17-38.88c-.61.68-1.17,1.38-1.7,2.09a156.53,156.53,0,0,0-21.61-11c.26-.84.5-1.7.69-2.58a29,29,0,1,0-56.83-12.08c-.19.89-.32,1.79-.43,2.68a159.32,159.32,0,0,0-24.21,1.27,25.46,25.46,0,0,0-.71-2.62,29,29,0,1,0-55.25,18c.28.86.6,1.68.95,2.5a156.07,156.07,0,0,0-20.33,13.23,26.47,26.47,0,0,0-1.91-1.91,29,29,0,0,0-38.87,43.18c.67.61,1.38,1.17,2.09,1.7a157,157,0,0,0-11,21.6c-.85-.26-1.71-.5-2.59-.68a29,29,0,0,0-12.08,56.82c.9.19,1.8.33,2.69.43A158,158,0,0,0,525,430c-.88.2-1.76.43-2.63.71a29.05,29.05,0,1,0,18,55.26c.85-.28,1.68-.61,2.49-1a156.8,156.8,0,0,0,13.23,20.33c-.65.61-1.29,1.24-1.9,1.91a29,29,0,1,0,43.17,38.88c.61-.68,1.17-1.38,1.71-2.09a155.86,155.86,0,0,0,21.6,11c-.26.84-.5,1.7-.69,2.58a29,29,0,1,0,56.83,12.08c.19-.9.33-1.79.43-2.68a159.32,159.32,0,0,0,24.21-1.27c.2.87.43,1.75.71,2.62a29,29,0,0,0,55.25-17.95c-.28-.86-.6-1.68-.95-2.5a155.4,155.4,0,0,0,20.33-13.23,26.47,26.47,0,0,0,1.91,1.91,29.05,29.05,0,1,0,38.88-43.18c-.68-.61-1.38-1.17-2.1-1.7a157.05,157.05,0,0,0,11-21.6c.84.26,1.7.5,2.58.68A29,29,0,1,0,841.17,414c-.9-.19-1.79-.33-2.69-.43a157.91,157.91,0,0,0-1.27-24.21c.88-.2,1.76-.43,2.63-.71a29.05,29.05,0,0,0-18-55.26c-.86.28-1.69.61-2.5,1A155.76,155.76,0,0,0,806.16,314C806.81,313.43,807.45,312.8,808.06,312.13Z"/><path class="cls-2" d="M836.77,372.19a29,29,0,0,0-23.63-53.07c-.83.37-1.63.78-2.4,1.22a157.37,157.37,0,0,0-15.25-18.87c.58-.66,1.15-1.35,1.68-2.08a29,29,0,0,0-47-34.15c-.54.74-1,1.51-1.49,2.28a159.31,159.31,0,0,0-22.63-8.69c.17-.88.32-1.77.42-2.68a29,29,0,0,0-57.78-6.08c-.09.9-.13,1.79-.15,2.67a156,156,0,0,0-23.95,3.82c-.29-.84-.6-1.69-1-2.52a29.05,29.05,0,0,0-53.08,23.63c.37.83.79,1.63,1.22,2.41a155.52,155.52,0,0,0-18.86,15.25c-.67-.59-1.35-1.15-2.08-1.68a29,29,0,1,0-34.15,47c.74.54,1.5,1,2.28,1.49a157.66,157.66,0,0,0-8.69,22.63,26.43,26.43,0,0,0-2.69-.42,29,29,0,0,0-6.07,57.78c.9.09,1.78.13,2.67.14a155.91,155.91,0,0,0,3.82,24,26.67,26.67,0,0,0-2.52,1,29,29,0,0,0,23.63,53.07c.83-.37,1.63-.78,2.41-1.22a156.33,156.33,0,0,0,15.24,18.87c-.58.66-1.15,1.35-1.68,2.08a29.05,29.05,0,0,0,47,34.15c.54-.74,1-1.51,1.48-2.28a159.31,159.31,0,0,0,22.63,8.69c-.17.88-.32,1.77-.42,2.68a29,29,0,0,0,57.78,6.08c.1-.9.14-1.79.15-2.67a155.78,155.78,0,0,0,23.95-3.82c.29.84.6,1.69,1,2.52a29.05,29.05,0,0,0,53.08-23.63c-.37-.84-.79-1.63-1.22-2.41a155.52,155.52,0,0,0,18.86-15.25c.67.59,1.36,1.15,2.09,1.68a29,29,0,1,0,34.14-47c-.74-.54-1.5-1-2.28-1.49A157.66,157.66,0,0,0,832,454.62a26.43,26.43,0,0,0,2.69.42,29,29,0,1,0,6.07-57.78c-.89-.09-1.78-.13-2.67-.14a157.11,157.11,0,0,0-3.81-24C835.1,372.88,835.94,372.56,836.77,372.19Z"/><path class="cls-2" d="M838.57,438.74a29,29,0,1,0,0-58.09c-.91,0-1.81.05-2.7.13a155.32,155.32,0,0,0-6.25-23.43c.8-.38,1.6-.77,2.38-1.22a29.05,29.05,0,0,0-29-50.32c-.79.46-1.55,1-2.28,1.48a158.6,158.6,0,0,0-17.15-17.14c.52-.73,1-1.49,1.48-2.29a29,29,0,1,0-50.31-29c-.45.78-.85,1.57-1.22,2.38A156.35,156.35,0,0,0,710,254.94a26.62,26.62,0,0,0,.14-2.69,29.05,29.05,0,0,0-58.1,0c0,.91.06,1.8.14,2.69a157,157,0,0,0-23.44,6.26c-.37-.81-.77-1.6-1.22-2.38a29,29,0,1,0-50.31,29c.46.8,1,1.56,1.48,2.29a157.61,157.61,0,0,0-17.14,17.14c-.74-.52-1.49-1-2.29-1.48a29.05,29.05,0,0,0-29,50.32c.78.45,1.58.84,2.38,1.22a156.52,156.52,0,0,0-6.25,23.43c-.89-.08-1.79-.13-2.7-.13a29,29,0,1,0,0,58.09c.91,0,1.81-.05,2.7-.13A156.52,156.52,0,0,0,532.62,462c-.8.37-1.6.77-2.38,1.22a29.05,29.05,0,0,0,29,50.32c.8-.46,1.55-1,2.29-1.48a157.61,157.61,0,0,0,17.14,17.14c-.52.73-1,1.49-1.48,2.29a29,29,0,1,0,50.31,29c.45-.78.85-1.57,1.22-2.38a157,157,0,0,0,23.44,6.26c-.08.89-.14,1.78-.14,2.69a29,29,0,1,0,58.1,0,26.62,26.62,0,0,0-.14-2.69,156.35,156.35,0,0,0,23.44-6.26c.37.81.77,1.6,1.22,2.38a29,29,0,1,0,50.31-29c-.46-.8-1-1.56-1.48-2.29a158.6,158.6,0,0,0,17.15-17.14c.73.52,1.49,1,2.28,1.48a29.05,29.05,0,0,0,29-50.32c-.78-.45-1.58-.85-2.38-1.22a155.32,155.32,0,0,0,6.25-23.43C836.76,438.69,837.66,438.74,838.57,438.74Z"/></svg>