<svg id="Layer_1" data-name="Layer 1" xmlns="http://www.w3.org/2000/svg" viewBox="0 0 375.99 412.45"><defs><style>.cls-1{font-size:354.31px;fill:#fff;font-family:Europa-Bold;font-weight:700;}.cls-2{fill:none;stroke:#fff;stroke-miterlimit:10;stroke-width:3px;}</style></defs><title>Logo1</title><text class="cls-1" transform="translate(84.14 314.66)">B</text><path class="cls-2" d="M345.45,217.05a29.05,29.05,0,0,0,0-58.1c-.91,0-1.81.05-2.7.13a156.52,156.52,0,0,0-6.25-23.43c.8-.37,1.6-.77,2.38-1.22a29,29,0,0,0-29.05-50.31,27,27,0,0,0-2.29,1.47A159.41,159.41,0,0,0,290.4,68.45c.52-.73,1-1.49,1.48-2.28a29.05,29.05,0,0,0-50.32-29.05c-.45.78-.84,1.58-1.21,2.38a157,157,0,0,0-23.44-6.26c.08-.88.14-1.78.14-2.69a29,29,0,0,0-58.1,0c0,.91.05,1.81.13,2.69a156.54,156.54,0,0,0-23.43,6.26c-.37-.8-.77-1.6-1.22-2.38A29,29,0,0,0,84.12,66.17a26.87,26.87,0,0,0,1.47,2.28A159.41,159.41,0,0,0,68.45,85.59a26.87,26.87,0,0,0-2.28-1.47,29,29,0,1,0-29.05,50.31c.78.45,1.58.85,2.38,1.22a156.54,156.54,0,0,0-6.26,23.43c-.88-.08-1.78-.13-2.69-.13a29.05,29.05,0,0,0,0,58.1c.91,0,1.81-.06,2.69-.14a157,157,0,0,0,6.26,23.44c-.8.37-1.6.76-2.38,1.21a29.05,29.05,0,0,0,29.05,50.32c.79-.46,1.55-1,2.28-1.48a159.41,159.41,0,0,0,17.14,17.14,27,27,0,0,0-1.47,2.29,29,29,0,1,0,50.31,29.05c.45-.78.85-1.58,1.22-2.38a156.52,156.52,0,0,0,23.43,6.25c-.08.89-.13,1.79-.13,2.7a29.05,29.05,0,0,0,58.1,0c0-.91-.06-1.81-.14-2.7a157,157,0,0,0,23.44-6.25c.37.8.76,1.6,1.21,2.38a29.05,29.05,0,0,0,50.32-29.05c-.46-.8-1-1.55-1.48-2.29a159.41,159.41,0,0,0,17.14-17.14c.74.52,1.49,1,2.29,1.48a29.05,29.05,0,0,0,29.05-50.32c-.78-.45-1.58-.84-2.38-1.21a157,157,0,0,0,6.25-23.44C343.64,217,344.54,217.05,345.45,217.05Z"/><path class="cls-2" d="M320,278.57a29,29,0,1,0,23.63-53.07,26.67,26.67,0,0,0-2.52-1,155.91,155.91,0,0,0,3.82-24c.88,0,1.77,0,2.67-.14a29,29,0,0,0-6.07-57.78c-.92.1-1.81.24-2.69.42a158.85,158.85,0,0,0-8.69-22.63c.77-.46,1.54-1,2.28-1.49A29,29,0,1,0,298.3,72c-.73.53-1.41,1.1-2.08,1.68a156.59,156.59,0,0,0-18.87-15.25c.44-.78.85-1.57,1.22-2.4A29,29,0,1,0,225.5,32.35c-.37.83-.69,1.67-1,2.51a157.14,157.14,0,0,0-24-3.82c0-.88,0-1.77-.14-2.67a29,29,0,1,0-57.78,6.08c.1.91.24,1.8.42,2.69a158.07,158.07,0,0,0-22.63,8.68c-.46-.77-1-1.53-1.49-2.28A29,29,0,0,0,72,77.69c.53.73,1.1,1.42,1.68,2.08A157.37,157.37,0,0,0,58.38,98.64c-.78-.44-1.57-.85-2.4-1.22a29,29,0,1,0-23.63,53.07c.83.37,1.67.69,2.51,1A157,157,0,0,0,31,175.42c-.88,0-1.77.05-2.67.15a29,29,0,1,0,6.08,57.77,26.87,26.87,0,0,0,2.69-.42,158.19,158.19,0,0,0,8.68,22.64c-.77.45-1.53.94-2.28,1.48a29,29,0,0,0,34.15,47c.73-.53,1.42-1.09,2.08-1.67a156.33,156.33,0,0,0,18.87,15.24c-.44.78-.85,1.58-1.22,2.41a29,29,0,1,0,53.07,23.63c.37-.83.69-1.67,1-2.52A155.78,155.78,0,0,0,175.42,345c0,.88.05,1.77.15,2.67a29,29,0,1,0,57.77-6.07,26,26,0,0,0-.42-2.69,159.44,159.44,0,0,0,22.64-8.69,26.84,26.84,0,0,0,1.48,2.28,29,29,0,1,0,47-34.15c-.53-.73-1.09-1.41-1.67-2.08a155.55,155.55,0,0,0,15.24-18.87C318.39,277.79,319.19,278.2,320,278.57Z"/><path class="cls-2" d="M271.76,324.44a29,29,0,0,0,43.18-38.87,26.47,26.47,0,0,0-1.91-1.91,156.62,156.62,0,0,0,13.24-20.34c.81.35,1.64.68,2.49,1a29.05,29.05,0,1,0,18-55.26c-.88-.28-1.75-.51-2.63-.7a159.32,159.32,0,0,0,1.27-24.21c.89-.11,1.79-.24,2.68-.43A29,29,0,1,0,336,126.85c-.89.19-1.74.42-2.59.68a157,157,0,0,0-11-21.6c.71-.53,1.42-1.09,2.09-1.7a29,29,0,0,0-38.87-43.17c-.68.61-1.31,1.25-1.91,1.9a157.12,157.12,0,0,0-20.33-13.23c.34-.81.67-1.64.95-2.5A29.05,29.05,0,0,0,209,29.28c-.28.87-.51,1.75-.7,2.63a156.79,156.79,0,0,0-24.21-1.27c-.11-.9-.24-1.79-.43-2.69A29,29,0,0,0,126.85,40q.29,1.32.69,2.58a155.5,155.5,0,0,0-21.61,11c-.53-.72-1.09-1.42-1.7-2.1A29,29,0,1,0,61.06,90.43c.61.67,1.25,1.3,1.9,1.91a156.44,156.44,0,0,0-13.23,20.33,25.78,25.78,0,0,0-2.5-1A29,29,0,1,0,29.28,167c.87.28,1.75.51,2.63.71a156.79,156.79,0,0,0-1.27,24.21c-.9.1-1.79.24-2.69.43A29,29,0,0,0,40,249.15c.88-.19,1.74-.43,2.58-.69a156,156,0,0,0,11,21.6c-.72.53-1.42,1.09-2.1,1.7a29.05,29.05,0,1,0,38.88,43.18c.67-.61,1.3-1.25,1.91-1.91a156.51,156.51,0,0,0,20.33,13.24,26.62,26.62,0,0,0-1,2.49,29,29,0,1,0,55.25,18c.28-.88.51-1.75.71-2.63a159.32,159.32,0,0,0,24.21,1.27c.1.89.24,1.79.43,2.68A29,29,0,1,0,249.15,336c-.19-.89-.43-1.74-.69-2.59a157,157,0,0,0,21.6-11C270.59,323.06,271.15,323.77,271.76,324.44Z"/><path class="cls-2" d="M209,346.72a29.05,29.05,0,1,0,55.26-18c-.28-.86-.61-1.7-1-2.52a156.49,156.49,0,0,0,20.35-13.19c.6.65,1.23,1.28,1.9,1.89a29,29,0,0,0,38.87-43.18c-.68-.61-1.39-1.18-2.11-1.71a159,159,0,0,0,11-21.6c.85.26,1.73.51,2.63.7A29,29,0,1,0,348,192.32c-.88-.19-1.76-.32-2.63-.42a156.82,156.82,0,0,0-1.3-24.23c.87-.19,1.74-.42,2.61-.7a29,29,0,1,0-18-55.25c-.86.28-1.7.61-2.52,1a154.9,154.9,0,0,0-13.19-20.36c.65-.6,1.28-1.22,1.89-1.89a29.05,29.05,0,0,0-43.18-38.88c-.61.68-1.18,1.39-1.71,2.11a158.9,158.9,0,0,0-21.6-11c.26-.86.51-1.73.7-2.63A29,29,0,0,0,192.32,28c-.19.88-.32,1.76-.42,2.64a156.8,156.8,0,0,0-24.23,1.29c-.19-.87-.42-1.74-.7-2.6a29,29,0,1,0-55.25,17.95c.28.87.61,1.7,1,2.52A157,157,0,0,0,92.32,62.94c-.6-.65-1.22-1.28-1.89-1.88a29,29,0,1,0-38.88,43.17c.68.61,1.39,1.18,2.11,1.72a158.9,158.9,0,0,0-11,21.6c-.86-.27-1.73-.51-2.63-.7A29,29,0,0,0,28,183.68c.88.18,1.76.31,2.64.42a156.67,156.67,0,0,0,1.29,24.22c-.87.2-1.74.42-2.6.7a29.05,29.05,0,0,0,17.95,55.26c.87-.28,1.7-.61,2.52-1a157.54,157.54,0,0,0,13.19,20.35c-.65.6-1.28,1.23-1.88,1.9a29,29,0,0,0,43.17,38.87c.61-.68,1.18-1.39,1.72-2.11a159,159,0,0,0,21.6,11c-.27.85-.51,1.73-.7,2.63A29,29,0,1,0,183.68,348c.18-.88.31-1.76.42-2.63a156.69,156.69,0,0,0,24.22-1.3C208.52,345,208.74,345.85,209,346.72Z"/><path class="cls-2" d="M142.65,341.55a29,29,0,0,0,57.78,6.07c.09-.91.13-1.8.15-2.7a154.71,154.71,0,0,0,24-3.77,26.23,26.23,0,0,0,1,2.5A29,29,0,0,0,278.57,320c-.37-.84-.79-1.64-1.23-2.43a159.56,159.56,0,0,0,18.84-15.25c.68.59,1.38,1.16,2.12,1.7a29,29,0,1,0,34.15-47c-.73-.53-1.48-1-2.24-1.46a156.94,156.94,0,0,0,8.67-22.65c.88.17,1.76.32,2.67.41a29,29,0,1,0,6.07-57.77c-.91-.1-1.8-.14-2.7-.15a154.52,154.52,0,0,0-3.77-24c.84-.29,1.68-.6,2.5-1A29,29,0,0,0,320,97.42c-.84.37-1.64.79-2.43,1.23a159.56,159.56,0,0,0-15.25-18.84c.59-.67,1.16-1.37,1.7-2.12a29,29,0,0,0-47-34.15c-.53.73-1,1.48-1.46,2.24a156.94,156.94,0,0,0-22.65-8.67c.17-.87.32-1.76.41-2.66a29,29,0,1,0-57.77-6.08c-.1.91-.14,1.81-.15,2.7a155.73,155.73,0,0,0-24,3.77c-.29-.84-.6-1.67-1-2.49A29,29,0,1,0,97.42,56c.37.83.79,1.64,1.23,2.42A158.64,158.64,0,0,0,79.81,73.66c-.67-.59-1.37-1.17-2.12-1.71a29,29,0,0,0-34.15,47c.73.53,1.48,1,2.24,1.46a157.06,157.06,0,0,0-8.67,22.66c-.87-.18-1.76-.32-2.66-.42a29,29,0,1,0-6.08,57.78c.91.09,1.81.13,2.7.15a155.92,155.92,0,0,0,3.77,24,26.05,26.05,0,0,0-2.49,1A29,29,0,1,0,56,278.57c.83-.37,1.64-.79,2.42-1.23a158.64,158.64,0,0,0,15.26,18.84c-.59.68-1.17,1.38-1.71,2.12a29,29,0,1,0,47,34.15c.53-.73,1-1.48,1.46-2.24a157.06,157.06,0,0,0,22.66,8.67C142.89,339.76,142.75,340.64,142.65,341.55Z"/><path class="cls-2" d="M84.12,309.83a29,29,0,1,0,50.31,29.05c.45-.79.86-1.6,1.23-2.41a157,157,0,0,0,23.42,6.31c-.08.88-.13,1.76-.13,2.67a29.05,29.05,0,0,0,58.1,0c0-.92-.06-1.83-.14-2.72a157.91,157.91,0,0,0,23.41-6.28c.38.82.79,1.63,1.24,2.43a29.05,29.05,0,0,0,50.32-29.05c-.45-.78-.94-1.53-1.45-2.25a155.17,155.17,0,0,0,17.13-17.17c.73.52,1.48,1,2.27,1.47a29.05,29.05,0,0,0,29.05-50.32c-.79-.45-1.6-.85-2.41-1.23a157,157,0,0,0,6.31-23.42c.88.08,1.76.14,2.67.14a29.05,29.05,0,0,0,0-58.1,27.06,27.06,0,0,0-2.72.14,157.71,157.71,0,0,0-6.28-23.42c.82-.38,1.63-.78,2.43-1.24a29,29,0,0,0-29.05-50.31c-.78.45-1.52.94-2.25,1.45a156.13,156.13,0,0,0-17.17-17.14c.52-.73,1-1.48,1.47-2.26a29.05,29.05,0,0,0-50.32-29.05c-.45.79-.85,1.59-1.23,2.4a155.73,155.73,0,0,0-23.42-6.3c.08-.88.14-1.77.14-2.67a29,29,0,0,0-58.1,0,27.22,27.22,0,0,0,.14,2.72,157.67,157.67,0,0,0-23.42,6.27c-.38-.82-.78-1.63-1.24-2.42A29,29,0,0,0,84.12,66.17c.45.78.94,1.52,1.45,2.24A157,157,0,0,0,68.43,85.58c-.73-.51-1.48-1-2.26-1.46a29,29,0,1,0-29.05,50.31q1.18.67,2.4,1.23a155.73,155.73,0,0,0-6.3,23.42c-.88-.08-1.77-.13-2.67-.13a29.05,29.05,0,0,0,0,58.1c.92,0,1.82-.06,2.72-.14a157.87,157.87,0,0,0,6.27,23.41c-.82.38-1.63.79-2.42,1.24a29.05,29.05,0,0,0,29.05,50.32c.78-.45,1.52-.94,2.24-1.45a156,156,0,0,0,17.17,17.13C85.07,308.29,84.57,309,84.12,309.83Z"/><path class="cls-2" d="M43.54,257a29,29,0,0,0,34.15,47,26.74,26.74,0,0,0,2.1-1.69,156.58,156.58,0,0,0,18.84,15.28c-.43.78-.84,1.57-1.21,2.39a29,29,0,1,0,53.07,23.63,25.51,25.51,0,0,0,1-2.54,159,159,0,0,0,23.95,3.79c0,.9.05,1.81.15,2.72a29,29,0,1,0,57.77-6.07c-.09-.9-.24-1.78-.41-2.64a156.49,156.49,0,0,0,22.64-8.72c.45.77.94,1.52,1.47,2.26a29,29,0,1,0,47-34.15c-.53-.73-1.1-1.43-1.69-2.1a156.48,156.48,0,0,0,15.28-18.83c.78.43,1.57.84,2.39,1.2a29,29,0,1,0,23.63-53.07c-.84-.37-1.69-.69-2.54-1a158.84,158.84,0,0,0,3.79-23.94c.9,0,1.81-.06,2.72-.15a29,29,0,0,0-6.07-57.78c-.9.09-1.78.24-2.64.41a156.37,156.37,0,0,0-8.72-22.63c.77-.46,1.52-.94,2.26-1.48A29,29,0,1,0,298.3,72c-.73.54-1.43,1.11-2.1,1.69a157.45,157.45,0,0,0-18.83-15.28c.43-.77.84-1.56,1.2-2.38A29,29,0,1,0,225.5,32.35c-.37.83-.69,1.68-1,2.53a158.84,158.84,0,0,0-23.94-3.79c0-.9-.06-1.8-.15-2.72a29,29,0,1,0-57.78,6.08c.09.89.24,1.77.41,2.64a157.49,157.49,0,0,0-22.63,8.71c-.46-.76-.94-1.52-1.48-2.26A29,29,0,0,0,72,77.69c.54.74,1.11,1.43,1.69,2.1A157.55,157.55,0,0,0,58.36,98.63c-.77-.43-1.56-.84-2.38-1.21a29,29,0,1,0-23.63,53.07,24.44,24.44,0,0,0,2.53,1,159,159,0,0,0-3.79,23.95c-.9,0-1.8.05-2.72.15a29,29,0,1,0,6.08,57.77c.89-.09,1.77-.24,2.64-.41a157.6,157.6,0,0,0,8.71,22.64C45,256,44.28,256.51,43.54,257Z"/><path class="cls-2" d="M28,192.32A29,29,0,0,0,40,249.15c.89-.19,1.75-.43,2.61-.7a156.24,156.24,0,0,0,11,21.63c-.71.53-1.41,1.08-2.08,1.68a29.05,29.05,0,1,0,38.88,43.18c.68-.62,1.32-1.26,1.93-1.92a157.85,157.85,0,0,0,20.33,13.2c-.36.83-.69,1.67-1,2.54a29,29,0,1,0,55.25,18c.28-.86.5-1.72.7-2.58a157.05,157.05,0,0,0,24.22,1.24c.11.89.24,1.77.43,2.66A29,29,0,1,0,249.15,336c-.19-.89-.43-1.76-.7-2.61a157.35,157.35,0,0,0,21.63-11c.53.71,1.08,1.4,1.68,2.07a29,29,0,0,0,43.18-38.87c-.62-.68-1.26-1.32-1.92-1.93a158.54,158.54,0,0,0,13.2-20.33c.83.35,1.67.68,2.54,1a29.05,29.05,0,1,0,18-55.26q-1.29-.41-2.58-.69a157.25,157.25,0,0,0,1.24-24.23c.89-.1,1.77-.24,2.66-.42A29,29,0,1,0,336,126.85c-.89.19-1.76.43-2.61.69a156.66,156.66,0,0,0-11-21.62c.71-.53,1.4-1.09,2.07-1.69a29,29,0,0,0-38.87-43.17c-.68.61-1.32,1.26-1.93,1.92a158.61,158.61,0,0,0-20.33-13.21c.35-.82.68-1.67,1-2.54A29.05,29.05,0,0,0,209,29.28q-.41,1.29-.69,2.58a156,156,0,0,0-24.23-1.25c-.1-.88-.24-1.77-.42-2.66A29,29,0,0,0,126.85,40c.19.89.43,1.75.69,2.61a155.56,155.56,0,0,0-21.62,11c-.53-.71-1.09-1.41-1.69-2.08A29,29,0,1,0,61.06,90.43c.61.68,1.26,1.32,1.92,1.93a157.92,157.92,0,0,0-13.21,20.33,26.64,26.64,0,0,0-2.54-1A29,29,0,1,0,29.28,167c.86.28,1.72.5,2.58.7a155.81,155.81,0,0,0-1.25,24.22C29.73,192,28.84,192.13,28,192.32Z"/><path class="cls-2" d="M40,126.85A29,29,0,0,0,28,183.68c.89.18,1.78.32,2.66.42a156,156,0,0,0,1.25,24.23q-1.29.28-2.58.69a29.05,29.05,0,0,0,17.95,55.26c.87-.29,1.72-.62,2.54-1A158.61,158.61,0,0,0,63,283.64c-.66.61-1.31,1.25-1.92,1.93a29,29,0,0,0,43.17,38.87c.6-.67,1.16-1.36,1.69-2.07a156.66,156.66,0,0,0,21.62,11c-.26.85-.5,1.72-.69,2.61A29,29,0,1,0,183.68,348c.18-.89.32-1.77.42-2.66a157.25,157.25,0,0,0,24.23-1.24q.28,1.29.69,2.58a29.05,29.05,0,1,0,55.26-18c-.29-.87-.62-1.71-1-2.54A158.54,158.54,0,0,0,283.64,313c.61.66,1.25,1.3,1.93,1.92a29,29,0,0,0,38.87-43.18c-.67-.6-1.36-1.15-2.07-1.68a157.35,157.35,0,0,0,11-21.63c.85.27,1.72.51,2.61.7A29,29,0,1,0,348,192.32c-.89-.19-1.77-.32-2.66-.43a157.05,157.05,0,0,0-1.24-24.22c.86-.2,1.72-.42,2.58-.7a29,29,0,1,0-18-55.25c-.87.28-1.71.61-2.54,1A158.92,158.92,0,0,0,313,92.36c.66-.61,1.3-1.25,1.92-1.93a29.05,29.05,0,0,0-43.18-38.88c-.6.67-1.15,1.37-1.68,2.08a156.24,156.24,0,0,0-21.63-11c.27-.86.51-1.72.7-2.61A29,29,0,0,0,192.32,28c-.19.89-.32,1.78-.43,2.66a155.81,155.81,0,0,0-24.22,1.25c-.2-.86-.42-1.72-.7-2.58a29,29,0,1,0-55.25,17.95,26.64,26.64,0,0,0,1,2.54A157.92,157.92,0,0,0,92.36,63c-.61-.66-1.25-1.31-1.93-1.92a29,29,0,1,0-38.88,43.17c.67.6,1.37,1.16,2.08,1.69a155.56,155.56,0,0,0-11,21.62C41.78,127.28,40.92,127,40,126.85Z"/><path class="cls-2" d="M77.69,72a29,29,0,0,0-34.15,47c.74.54,1.5,1,2.26,1.48a157.49,157.49,0,0,0-8.71,22.63c-.87-.17-1.75-.32-2.64-.41a29,29,0,1,0-6.08,57.78c.92.09,1.82.14,2.72.15a158.84,158.84,0,0,0,3.79,23.94c-.85.29-1.7.61-2.53,1A29,29,0,1,0,56,278.57c.82-.36,1.61-.77,2.38-1.2A157.45,157.45,0,0,0,73.64,296.2c-.58.67-1.15,1.37-1.69,2.1a29,29,0,1,0,47,34.15c.54-.74,1-1.49,1.48-2.26a156.37,156.37,0,0,0,22.63,8.72c-.17.86-.32,1.74-.41,2.64a29,29,0,0,0,57.78,6.07c.09-.91.14-1.82.15-2.72a158.84,158.84,0,0,0,23.94-3.79c.29.85.61,1.7,1,2.54A29,29,0,0,0,278.57,320c-.36-.82-.77-1.61-1.2-2.39a156.48,156.48,0,0,0,18.83-15.28c.67.59,1.37,1.16,2.1,1.69a29,29,0,1,0,34.15-47c-.74-.53-1.49-1-2.26-1.47a156.49,156.49,0,0,0,8.72-22.64c.86.17,1.74.32,2.64.41a29,29,0,1,0,6.07-57.77c-.91-.1-1.82-.14-2.72-.15a159,159,0,0,0-3.79-23.95,25.51,25.51,0,0,0,2.54-1A29,29,0,0,0,320,97.42c-.82.37-1.61.78-2.39,1.21a156.58,156.58,0,0,0-15.28-18.84,26.74,26.74,0,0,0,1.69-2.1,29,29,0,0,0-47-34.15c-.53.74-1,1.5-1.47,2.26a157.6,157.6,0,0,0-22.64-8.71c.17-.87.32-1.75.41-2.64a29,29,0,1,0-57.77-6.08c-.1.92-.14,1.82-.15,2.72a159,159,0,0,0-23.95,3.79,24.44,24.44,0,0,0-1-2.53A29,29,0,1,0,97.42,56c.37.82.78,1.61,1.21,2.38A157.55,157.55,0,0,0,79.79,73.64C79.12,73.06,78.43,72.49,77.69,72Z"/><path class="cls-2" d="M134.43,37.12A29,29,0,0,0,84.12,66.17c.45.78.95,1.53,1.46,2.26A157,157,0,0,0,68.41,85.57c-.72-.51-1.46-1-2.24-1.45a29,29,0,1,0-29.05,50.31c.79.46,1.6.86,2.42,1.24a157.67,157.67,0,0,0-6.27,23.42,27.22,27.22,0,0,0-2.72-.14,29.05,29.05,0,0,0,0,58.1c.9,0,1.79-.06,2.67-.14a155.73,155.73,0,0,0,6.3,23.42c-.81.38-1.61.78-2.4,1.23a29.05,29.05,0,0,0,29.05,50.32c.78-.46,1.53-.95,2.26-1.47a156.13,156.13,0,0,0,17.14,17.17c-.51.72-1,1.47-1.45,2.25a29,29,0,1,0,50.31,29.05c.46-.8.86-1.61,1.24-2.43a157.71,157.71,0,0,0,23.42,6.28,27.06,27.06,0,0,0-.14,2.72,29.05,29.05,0,0,0,58.1,0c0-.91-.06-1.79-.14-2.67a157,157,0,0,0,23.42-6.31c.38.81.78,1.62,1.23,2.41a29.05,29.05,0,0,0,50.32-29.05c-.46-.79-.95-1.54-1.47-2.27a155.17,155.17,0,0,0,17.17-17.13c.72.51,1.47,1,2.25,1.45a29.05,29.05,0,0,0,29.05-50.32c-.8-.45-1.61-.86-2.43-1.24a157.91,157.91,0,0,0,6.28-23.41c.89.08,1.8.14,2.72.14a29.05,29.05,0,0,0,0-58.1c-.91,0-1.79.05-2.67.13a157,157,0,0,0-6.31-23.42c.81-.37,1.62-.78,2.41-1.23a29,29,0,0,0-29.05-50.31c-.79.45-1.54.95-2.27,1.46a156,156,0,0,0-17.13-17.17c.51-.72,1-1.46,1.45-2.24a29.05,29.05,0,0,0-50.32-29.05c-.45.79-.86,1.6-1.24,2.42a157.87,157.87,0,0,0-23.41-6.27c.08-.9.14-1.8.14-2.72a29,29,0,0,0-58.1,0c0,.9.05,1.79.13,2.67a155.73,155.73,0,0,0-23.42,6.3Q135.1,38.31,134.43,37.12Z"/><path class="cls-2" d="M200.43,28.37a29,29,0,1,0-57.78,6.08c.1.9.24,1.79.42,2.66a157.06,157.06,0,0,0-22.66,8.67c-.45-.76-.93-1.51-1.46-2.24A29,29,0,0,0,72,77.69c.54.75,1.12,1.45,1.71,2.12A158.64,158.64,0,0,0,58.4,98.65c-.78-.44-1.59-.86-2.42-1.23a29,29,0,1,0-23.63,53.07c.82.37,1.65.68,2.49,1a155.73,155.73,0,0,0-3.77,24c-.89,0-1.79.05-2.7.15a29,29,0,1,0,6.08,57.77c.9-.09,1.79-.24,2.66-.41a156.94,156.94,0,0,0,8.67,22.65c-.76.45-1.51.93-2.24,1.46a29,29,0,0,0,34.15,47c.75-.54,1.45-1.11,2.12-1.7a159.56,159.56,0,0,0,18.84,15.25c-.44.79-.86,1.59-1.23,2.43a29,29,0,1,0,53.07,23.63c.37-.82.68-1.66,1-2.5a154.52,154.52,0,0,0,24,3.77c0,.9.05,1.79.15,2.7a29,29,0,1,0,57.77-6.07c-.09-.91-.24-1.79-.41-2.67a156.94,156.94,0,0,0,22.65-8.67c.45.76.93,1.51,1.46,2.24a29,29,0,1,0,47-34.15c-.54-.74-1.11-1.44-1.7-2.12a159.56,159.56,0,0,0,15.25-18.84c.79.44,1.59.86,2.43,1.23a29,29,0,1,0,23.63-53.07,26.23,26.23,0,0,0-2.5-1,154.71,154.71,0,0,0,3.77-24c.9,0,1.79-.06,2.7-.15a29,29,0,0,0-6.07-57.78c-.91.1-1.79.24-2.67.42a157.06,157.06,0,0,0-8.67-22.66c.76-.45,1.51-.93,2.24-1.46A29,29,0,1,0,298.3,72c-.74.54-1.44,1.12-2.12,1.71A158.64,158.64,0,0,0,277.34,58.4c.44-.78.86-1.59,1.23-2.42A29,29,0,1,0,225.5,32.35a26.05,26.05,0,0,0-1,2.49,155.92,155.92,0,0,0-24-3.77C200.56,30.18,200.52,29.28,200.43,28.37Z"/><path class="cls-2" d="M264.28,47.23A29.05,29.05,0,0,0,209,29.28c-.28.86-.5,1.73-.7,2.6a156.67,156.67,0,0,0-24.22-1.29c-.11-.88-.24-1.76-.42-2.64A29,29,0,0,0,126.85,40c.19.9.43,1.77.7,2.63a158.9,158.9,0,0,0-21.6,11c-.54-.72-1.11-1.43-1.72-2.11A29,29,0,1,0,61.06,90.43c.6.67,1.23,1.29,1.88,1.89a157,157,0,0,0-13.19,20.36c-.82-.35-1.65-.68-2.52-1A29,29,0,1,0,29.28,167c.86.28,1.73.51,2.6.7a156.8,156.8,0,0,0-1.29,24.23c-.88.1-1.76.23-2.64.42A29,29,0,0,0,40,249.15c.9-.19,1.77-.44,2.63-.7a158.9,158.9,0,0,0,11,21.6c-.72.53-1.43,1.1-2.11,1.71a29.05,29.05,0,1,0,38.88,43.18c.67-.61,1.29-1.24,1.89-1.89a155.93,155.93,0,0,0,20.36,13.19c-.35.82-.68,1.66-1,2.52a29,29,0,1,0,55.25,18c.28-.87.51-1.74.7-2.61a156.82,156.82,0,0,0,24.23,1.3c.1.87.23,1.75.42,2.63A29,29,0,1,0,249.15,336c-.19-.9-.44-1.78-.7-2.63a160.11,160.11,0,0,0,21.6-11c.53.72,1.1,1.43,1.71,2.11a29,29,0,0,0,43.18-38.87c-.61-.67-1.24-1.3-1.89-1.9a156.49,156.49,0,0,0,13.19-20.35c.82.35,1.66.68,2.52,1a29.05,29.05,0,1,0,18-55.26c-.87-.28-1.74-.5-2.61-.7a156.69,156.69,0,0,0,1.3-24.22c.87-.11,1.75-.24,2.63-.42A29,29,0,1,0,336,126.85c-.9.19-1.78.43-2.63.7a159,159,0,0,0-11-21.6c.72-.54,1.43-1.11,2.11-1.72a29,29,0,0,0-38.87-43.17c-.67.6-1.3,1.23-1.9,1.88a157.54,157.54,0,0,0-20.35-13.19C263.67,48.93,264,48.1,264.28,47.23Z"/><path class="cls-2" d="M314.94,90.43a29.05,29.05,0,0,0-43.18-38.88c-.61.68-1.17,1.38-1.7,2.1a156,156,0,0,0-21.6-11c.26-.84.5-1.7.69-2.58A29,29,0,0,0,192.32,28c-.19.9-.33,1.79-.43,2.69a156.72,156.72,0,0,0-24.21,1.27c-.2-.88-.43-1.76-.71-2.63a29,29,0,1,0-55.25,17.95,25.78,25.78,0,0,0,1,2.5A156.44,156.44,0,0,0,92.34,63c-.61-.65-1.24-1.29-1.91-1.9a29,29,0,1,0-38.88,43.17c.68.61,1.38,1.17,2.1,1.7a156,156,0,0,0-11,21.6c-.84-.26-1.7-.49-2.58-.68A29,29,0,0,0,28,183.68c.9.19,1.79.32,2.69.43a156.79,156.79,0,0,0,1.27,24.21c-.88.19-1.76.42-2.63.7a29.05,29.05,0,0,0,17.95,55.26c.86-.28,1.69-.61,2.5-1A156.54,156.54,0,0,0,63,283.66c-.65.6-1.29,1.23-1.9,1.91a29,29,0,0,0,43.17,38.87c.61-.67,1.17-1.38,1.7-2.09a157,157,0,0,0,21.6,11c-.26.85-.49,1.7-.68,2.59A29,29,0,1,0,183.68,348c.19-.89.32-1.79.43-2.68a159.32,159.32,0,0,0,24.21-1.27c.19.88.42,1.75.7,2.63a29.05,29.05,0,1,0,55.26-18c-.28-.85-.61-1.68-1-2.49A156.62,156.62,0,0,0,283.66,313a26.47,26.47,0,0,0,1.91,1.91,29,29,0,0,0,38.87-43.18c-.67-.61-1.38-1.17-2.09-1.7a157,157,0,0,0,11-21.6c.85.26,1.7.5,2.59.69A29,29,0,1,0,348,192.32c-.89-.19-1.79-.33-2.68-.43a159.32,159.32,0,0,0-1.27-24.21c.88-.2,1.75-.43,2.63-.71a29,29,0,1,0-18-55.25,26.62,26.62,0,0,0-2.49,1A156.51,156.51,0,0,0,313,92.34C313.69,91.73,314.33,91.1,314.94,90.43Z"/><path class="cls-2" d="M343.65,150.49A29,29,0,0,0,320,97.42c-.83.37-1.63.78-2.41,1.22a156.33,156.33,0,0,0-15.24-18.87c.58-.66,1.14-1.35,1.67-2.08a29,29,0,0,0-47-34.15c-.54.75-1,1.51-1.48,2.28a158.19,158.19,0,0,0-22.64-8.68,26.87,26.87,0,0,0,.42-2.69,29,29,0,1,0-57.77-6.08c-.1.9-.14,1.79-.15,2.67a157,157,0,0,0-23.95,3.82c-.29-.84-.61-1.68-1-2.51A29,29,0,1,0,97.42,56c.37.83.78,1.62,1.22,2.4A157.37,157.37,0,0,0,79.77,73.63c-.66-.58-1.35-1.15-2.08-1.68a29,29,0,0,0-34.15,47c.75.54,1.51,1,2.28,1.49a157.62,157.62,0,0,0-8.68,22.63c-.89-.18-1.78-.32-2.69-.42a29,29,0,1,0-6.08,57.78c.9.09,1.79.13,2.67.14a157.14,157.14,0,0,0,3.82,24c-.84.28-1.68.6-2.51,1A29,29,0,1,0,56,278.57c.83-.37,1.62-.78,2.4-1.22a156.59,156.59,0,0,0,15.25,18.87c-.58.67-1.15,1.35-1.68,2.08a29,29,0,1,0,47,34.15c.54-.74,1-1.51,1.49-2.28a158.85,158.85,0,0,0,22.63,8.69c-.18.88-.32,1.77-.42,2.69a29,29,0,0,0,57.78,6.07c.09-.9.13-1.79.14-2.67a155.91,155.91,0,0,0,24-3.82,26.67,26.67,0,0,0,1,2.52A29,29,0,0,0,278.57,320c-.37-.83-.78-1.63-1.22-2.41a155.55,155.55,0,0,0,18.87-15.24c.67.58,1.35,1.14,2.08,1.67a29,29,0,1,0,34.15-47,26.84,26.84,0,0,0-2.28-1.48,159.44,159.44,0,0,0,8.69-22.64,26,26,0,0,0,2.69.42,29,29,0,1,0,6.07-57.77c-.9-.1-1.79-.14-2.67-.15a155.78,155.78,0,0,0-3.82-23.95C342,151.18,342.82,150.86,343.65,150.49Z"/><path class="cls-2" d="M345.45,217.05a29.05,29.05,0,0,0,0-58.1c-.91,0-1.81.05-2.7.13a156.52,156.52,0,0,0-6.25-23.43c.8-.37,1.6-.77,2.38-1.22a29,29,0,0,0-29.05-50.31,27,27,0,0,0-2.29,1.47A159.41,159.41,0,0,0,290.4,68.45c.52-.73,1-1.49,1.48-2.28a29.05,29.05,0,0,0-50.32-29.05c-.45.78-.84,1.58-1.21,2.38a157,157,0,0,0-23.44-6.26c.08-.88.14-1.78.14-2.69a29,29,0,0,0-58.1,0c0,.91.05,1.81.13,2.69a156.54,156.54,0,0,0-23.43,6.26c-.37-.8-.77-1.6-1.22-2.38A29,29,0,0,0,84.12,66.17a26.87,26.87,0,0,0,1.47,2.28A159.41,159.41,0,0,0,68.45,85.59a26.87,26.87,0,0,0-2.28-1.47,29,29,0,1,0-29.05,50.31c.78.45,1.58.85,2.38,1.22a156.54,156.54,0,0,0-6.26,23.43c-.88-.08-1.78-.13-2.69-.13a29.05,29.05,0,0,0,0,58.1c.91,0,1.81-.06,2.69-.14a157,157,0,0,0,6.26,23.44c-.8.37-1.6.76-2.38,1.21a29.05,29.05,0,0,0,29.05,50.32c.79-.46,1.55-1,2.28-1.48a159.41,159.41,0,0,0,17.14,17.14,27,27,0,0,0-1.47,2.29,29,29,0,1,0,50.31,29.05c.45-.78.85-1.58,1.22-2.38a156.52,156.52,0,0,0,23.43,6.25c-.08.89-.13,1.79-.13,2.7a29.05,29.05,0,0,0,58.1,0c0-.91-.06-1.81-.14-2.7a157,157,0,0,0,23.44-6.25c.37.8.76,1.6,1.21,2.38a29.05,29.05,0,0,0,50.32-29.05c-.46-.8-1-1.55-1.48-2.29a159.41,159.41,0,0,0,17.14-17.14c.74.52,1.49,1,2.29,1.48a29.05,29.05,0,0,0,29.05-50.32c-.78-.45-1.58-.84-2.38-1.21a157,157,0,0,0,6.25-23.44C343.64,217,344.54,217.05,345.45,217.05Z"/></svg>